<?xml version="1.0" encoding="UTF-8"?><svg id="_レイヤー_2" xmlns="http://www.w3.org/2000/svg" viewBox="0 0 158.11 64.69"><defs><style>.cls-1,.cls-2{stroke-width:0px;}.cls-2{fill:#fff;}</style></defs><g id="design"><ellipse class="cls-1" cx="79.05" cy="32.35" rx="79.05" ry="32.35"/><path class="cls-2" d="m53.09,39.29c-1.76.98-3.3.98-3.88.98-4.42,0-7.12-3.4-7.12-8.12s2.82-8.16,7.02-8.16c2.14,0,3.32.84,3.92,1.24l-.46,1.18c-.72-.54-1.72-1.22-3.46-1.22-3.4,0-5.72,2.9-5.72,6.94,0,3.4,1.74,6.96,5.9,6.96,2.06,0,3.2-.8,3.8-1.24v1.44Z"/><path class="cls-2" d="m61.49,23.98c3.66,0,6.48,3.08,6.5,8.14,0,5.04-2.82,8.14-6.5,8.14s-6.48-2.98-6.48-8.14,2.92-8.14,6.48-8.14Zm0,15.1c3.32,0,5.18-3.32,5.18-6.96s-1.86-6.94-5.18-6.94-5.18,3.26-5.18,6.94,1.9,6.96,5.18,6.96Z"/><path class="cls-2" d="m72.23,24.3l8,14.18v-14.18h1.28v15.64h-1.9l-7.98-14.18v14.18h-1.28v-15.64h1.88Z"/><path class="cls-2" d="m89.47,39.95h-1.3v-14.44h-4.72v-1.2h10.74v1.2h-4.72v14.44Z"/><path class="cls-2" d="m98.13,35.05l-1.6,4.9h-1.38l5.18-15.64h1.76l5.18,15.64h-1.38l-1.6-4.9h-6.16Zm3.08-9.54l-2.72,8.36h5.44l-2.72-8.36Z"/><path class="cls-2" d="m119.75,39.29c-1.76.98-3.3.98-3.88.98-4.42,0-7.12-3.4-7.12-8.12s2.82-8.16,7.02-8.16c2.14,0,3.32.84,3.92,1.24l-.46,1.18c-.72-.54-1.72-1.22-3.46-1.22-3.4,0-5.72,2.9-5.72,6.94,0,3.4,1.74,6.96,5.9,6.96,2.06,0,3.2-.8,3.8-1.24v1.44Z"/><path class="cls-2" d="m127.25,39.95h-1.3v-14.44h-4.72v-1.2h10.74v1.2h-4.72v14.44Z"/><path class="cls-2" d="m30.06,38.19c-1.49,0-3-.81-4.75-2.56-.17-.17-.17-.45,0-.62.17-.17.45-.17.62,0,1.57,1.57,2.89,2.31,4.13,2.31s2.56-.73,4.13-2.31c.17-.17.45-.17.62,0,.17.17.17.45,0,.62-1.75,1.75-3.26,2.56-4.75,2.56Z"/><path class="cls-2" d="m30.06,36.15c-.24,0-.44-.2-.44-.44v-7c0-.24.2-.44.44-.44s.44.2.44.44v7c0,.24-.2.44-.44.44Z"/></g></svg>