<svg xmlns="http://www.w3.org/2000/svg" width="158.109" height="64.694" viewBox="0 0 158.109 64.694">
  <g id="グループ_138" data-name="グループ 138" transform="translate(-640.945 -3556.22)">
    <ellipse id="楕円形_26" data-name="楕円形 26" cx="79.055" cy="32.347" rx="79.055" ry="32.347" transform="translate(640.945 3556.22)"/>
    <g id="グループ_137" data-name="グループ 137">
      <text id="CONTACT" transform="translate(681.994 3596.167)" fill="#fff" font-size="20" font-family="UDShinGoCOeizPr6N-Lig, A-OTF UD Shin Go Con80 Pr6N"><tspan x="0" y="0">CONTACT</tspan></text>
      <g id="グループ_136" data-name="グループ 136">
        <path id="パス_91" data-name="パス 91" d="M671.006,3594.411c-1.49,0-3-.814-4.748-2.564a.437.437,0,0,1,.618-.618c1.574,1.575,2.887,2.308,4.13,2.308s2.556-.733,4.131-2.308a.437.437,0,0,1,.618.618C674.005,3593.6,672.5,3594.411,671.006,3594.411Z" fill="#fff"/>
        <path id="パス_92" data-name="パス 92" d="M671.006,3592.368a.437.437,0,0,1-.437-.437v-7a.437.437,0,0,1,.874,0v7A.437.437,0,0,1,671.006,3592.368Z" fill="#fff"/>
      </g>
    </g>
  </g>
</svg>
