<svg xmlns="http://www.w3.org/2000/svg" width="683.64" height="81.54" viewBox="0 0 683.64 81.54"><path d="M20.43,0V-55.53h9.63v-9.09H.81v9.09h9.72V0ZM47.07-54.72V-64.89H37.89v10.17ZM46.89,0V-46.8H38.07V0ZM99.54,0V-34.11c0-7.56-1.44-13.41-7.74-13.41-3.87,0-6.93,1.89-9.45,5.49-.9-3.33-2.88-5.49-6.57-5.49s-6.39,1.98-9.27,5.58V-46.8H57.69V0h8.82V-34.83c1.17-1.98,3.06-3.96,4.95-3.96,2.07,0,2.79,1.8,2.79,6.39V0h8.82V-35.01c1.26-2.16,3.06-3.78,4.77-3.78,1.98,0,2.88,1.71,2.88,6.57V0ZM135.9-15.21h-8.1c-.18,4.77-1.35,8.55-5.22,8.55s-5.13-4.05-5.22-15.03h18.36c.09-1.89.18-3.87.18-5.49,0-10.98-2.52-20.34-13.23-20.34-10.08,0-13.86,8.46-13.86,23.76C108.81-5.4,112.86.72,122.4.72,130.95.72,135.18-4.77,135.9-15.21ZM122.58-40.32c3.78,0,4.77,4.41,4.77,12.06h-9.9C117.81-36.9,119.34-40.32,122.58-40.32ZM199.98,0l9.27-64.62h-9.63l-4.59,43.65h-.18l-5.22-43.65h-9.9l-4.95,43.65h-.18l-4.86-43.65h-9.63L169.74,0h10.17l4.59-44.46h.18L189.63,0ZM226.8.72c9.72,0,14.13-6.39,14.13-24.03,0-16.65-3.87-24.21-14.13-24.21-10.35,0-14.22,7.56-14.22,24.21C212.58-5.67,216.99.72,226.8.72Zm0-7.47c-3.78,0-4.95-4.23-4.95-16.56,0-12.15,1.17-16.74,4.95-16.74,3.69,0,4.86,4.59,4.86,16.74C231.66-10.98,230.49-6.75,226.8-6.75ZM259.2,0V-31.59c2.43-4.68,5.04-6.48,8.64-6.48.36,0,1.08.09,1.8.18v-9.45a12.647,12.647,0,0,0-1.62-.18c-4.14,0-6.39,2.88-8.82,7.65V-46.8h-8.82V0Zm43.74,0V-64.62h-8.82v21.87c-1.8-2.52-4.05-4.41-7.74-4.41-7.29,0-11.07,6.3-11.07,23.94C275.31-5.13,279,.72,285.93.72c4.23,0,6.84-2.97,8.73-6.03L295.83,0Zm-8.82-11.7c-.9,1.71-2.88,3.69-4.68,3.69-3.51,0-4.86-4.68-4.86-15.21,0-11.16,1.62-15.48,5.31-15.48,1.71,0,3.15,1.26,4.23,2.79ZM346.32.72c12.33,0,16.38-10.98,16.38-33.12,0-23.76-4.41-32.94-16.38-32.94-12.06,0-16.38,9.18-16.38,32.94C329.94-10.26,333.99.72,346.32.72Zm0-8.64c-4.14,0-6.12-5.58-6.12-24.48,0-18.18,1.53-24.03,6.12-24.03,4.5,0,6.12,5.85,6.12,24.03C352.44-13.5,350.37-7.92,346.32-7.92Zm34.92,23.4V-4.05c1.89,2.52,4.05,4.41,7.83,4.41,7.2,0,10.98-6.3,10.98-23.94,0-18.09-3.69-23.94-10.62-23.94-3.87,0-6.3,2.25-8.19,5.49V-46.8h-8.82V15.48Zm0-50.58c.9-1.71,2.88-3.69,4.68-3.69,3.51,0,4.86,4.86,4.86,15.21,0,11.43-1.62,15.48-5.31,15.48-1.71,0-3.15-1.26-4.23-2.79Zm37.08,50.58V-4.05c1.89,2.52,4.05,4.41,7.83,4.41,7.2,0,10.98-6.3,10.98-23.94,0-18.09-3.69-23.94-10.62-23.94-3.87,0-6.3,2.25-8.19,5.49V-46.8H409.5V15.48Zm0-50.58c.9-1.71,2.88-3.69,4.68-3.69,3.51,0,4.86,4.86,4.86,15.21,0,11.43-1.62,15.48-5.31,15.48-1.71,0-3.15-1.26-4.23-2.79ZM459.45.72c9.72,0,14.13-6.39,14.13-24.03,0-16.65-3.87-24.21-14.13-24.21-10.35,0-14.22,7.56-14.22,24.21C445.23-5.67,449.64.72,459.45.72Zm0-7.47c-3.78,0-4.95-4.23-4.95-16.56,0-12.15,1.17-16.74,4.95-16.74,3.69,0,4.86,4.59,4.86,16.74C464.31-10.98,463.14-6.75,459.45-6.75ZM491.85,0V-31.59c2.43-4.68,5.04-6.48,8.64-6.48.36,0,1.08.09,1.8.18v-9.45a12.646,12.646,0,0,0-1.62-.18c-4.14,0-6.39,2.88-8.82,7.65V-46.8h-8.82V0Zm38.88-8.82a12.724,12.724,0,0,1-3.96.72c-2.52,0-3.6-1.26-3.6-4.32V-39.15h7.56V-46.8h-7.56V-61.83h-8.82V-46.8h-5.67v7.65h5.67v28.8c0,7.83,2.52,10.71,9.54,10.71a28.47,28.47,0,0,0,6.84-.81ZM564.57,0V-46.8h-8.82v34.83c-1.62,2.52-3.42,3.96-5.13,3.96-2.43,0-3.06-1.8-3.06-6.57V-46.8h-9v34.11c0,4.59.27,7.83,1.62,10.26,1.17,1.98,3.06,3.15,6.03,3.15,3.87,0,6.66-1.89,9.54-5.67V0Zm36.72,0V-34.11c0-4.59-.36-7.83-1.62-10.26a6.513,6.513,0,0,0-6.03-3.15c-3.78,0-6.57,1.89-9.45,5.67V-46.8h-8.82V0h8.82V-34.83c1.62-2.52,3.42-3.96,5.13-3.96,2.34,0,3.15,1.8,3.15,6.57V0Zm19.62-54.72V-64.89h-9.18v10.17ZM620.73,0V-46.8h-8.82V0Zm29.52-8.82a12.725,12.725,0,0,1-3.96.72c-2.52,0-3.6-1.26-3.6-4.32V-39.15h7.56V-46.8h-7.56V-61.83h-8.82V-46.8H628.2v7.65h5.67v28.8c0,7.83,2.52,10.71,9.54,10.71a28.47,28.47,0,0,0,6.84-.81Zm23.4,10.35,10.8-48.33H675l-5.04,31.59h-.18l-5.4-31.59H654.21L665.55-1.35l-.27,1.17c-1.17,6.21-3.24,8.1-7.29,8.1-.72,0-1.35-.09-2.61-.18v8.28c.99.09,2.61.18,3.78.18C666.9,16.2,671.04,13.32,673.65,1.53Z" transform="translate(-0.81 65.34)"/></svg>