<?xml version="1.0" encoding="UTF-8"?><svg id="_レイヤー_2" xmlns="http://www.w3.org/2000/svg" viewBox="0 0 329.09 723.16"><defs><style>.cls-1{fill:#e2f3fa;stroke-width:0px;}</style></defs><g id="design"><path class="cls-1" d="m164.52,361.62c-55.42-39.5-126.64-98.47-153.87-161.75-13.23-30.16-8.54-65.07,2.52-95.2C55.55-6.3,199.33-35.86,282.24,49.17c26.9,27.35,43.73,64.48,46.32,102.8,7.4,65.63-64.39,133.99-110.03,173.87-16.5,14.08-33.32,27.44-51.08,39.99,0,0-5.81-8.51-5.81-8.51,34.78-24.34,67.87-51.79,97.4-82.32,27.32-29.24,58.15-65.89,62.08-106.96C325.51,53.42,208.42-26.87,102.76,17.3,45.94,40.51,6,98.83,5.35,160.28c-2.06,74.15,103.54,160.71,159.16,201.34h0Z"/><path class="cls-1" d="m164.58,361.53c55.42,39.5,126.64,98.47,153.87,161.75,13.23,30.16,8.54,65.07-2.52,95.2-42.39,110.97-186.17,140.54-269.08,55.5-26.9-27.35-43.73-64.48-46.32-102.8-7.4-65.63,64.39-133.99,110.03-173.87,16.5-14.08,33.32-27.44,51.08-39.99,0,0,5.81,8.51,5.81,8.51-34.78,24.34-67.87,51.79-97.4,82.32-27.32,29.24-58.15,65.89-62.08,106.96-4.39,114.62,112.7,194.91,218.35,150.74,56.82-23.2,96.77-81.53,97.41-142.98,2.06-74.15-103.54-160.71-159.16-201.34h0Z"/></g></svg>