<?xml version="1.0" encoding="UTF-8"?><svg id="_レイヤー_2" xmlns="http://www.w3.org/2000/svg" viewBox="0 0 1543.39 701.99"><defs><style>.cls-1{fill:#e2f3fa;stroke-width:0px;}</style></defs><g id="design"><path class="cls-1" d="m771.79,351.06c-83.46,118.47-235.24,301.06-378.02,339.4-16.78,4.34-34.36,6.66-51.72,6.08-11.54-.15-23.09-.76-34.55-2.14-74.82-8.19-146.31-41.98-200.56-94.2C-98.77,401.62,8.68,55.23,289.54,5.26c4.84-1,12.4-1.91,17.38-2.57,13.05-1.75,26.27-2.34,39.43-2.65,2.44-.13,6.47.08,8.97.1,1.13-.02,3.37.13,4.5.22,152.33,10.73,324.26,213.14,410.81,330.22,3.41,4.69,6.75,9.32,10.15,14.2,0,0-18.17,12.41-18.17,12.41-3.1-4.55-6.41-9.24-9.69-13.84-23.15-32.35-47.66-63.74-73.22-94.22-65.88-77.03-137.66-152.42-227.01-201.96-29.19-15.51-60.87-27.85-93.99-30.29-10.88-.71-22.24-.42-33.21.29-78.34,4.55-154.29,38.13-210.82,92.6-137.1,129-137.71,354.11-1.89,484.39,52.49,51.56,122.29,85.37,195.44,94.09,11.25,1.48,22.6,2.18,33.94,2.44,16.98.73,33.81-1.35,50.31-5.41,142.81-37.05,294.51-217.68,379.33-334.23h0Z"/><path class="cls-1" d="m771.6,350.93c83.46-118.47,235.24-301.06,378.02-339.4,16.78-4.34,34.36-6.66,51.72-6.08,11.54.15,23.09.76,34.55,2.14,74.82,8.19,146.31,41.98,200.56,94.2,205.71,198.58,98.26,544.97-182.61,594.94-4.84,1-12.4,1.91-17.38,2.57-13.05,1.75-26.27,2.34-39.43,2.65-2.44.13-6.47-.08-8.97-.1-1.13.02-3.37-.13-4.5-.22-152.33-10.73-324.26-213.14-410.81-330.22-3.41-4.69-6.75-9.32-10.15-14.2,0,0,18.17-12.41,18.17-12.41,3.1,4.55,6.41,9.24,9.69,13.84,23.15,32.35,47.66,63.74,73.22,94.22,65.88,77.03,137.66,152.42,227.01,201.96,29.19,15.51,60.87,27.85,93.99,30.29,10.88.71,22.24.42,33.21-.29,78.34-4.55,154.29-38.13,210.82-92.6,137.1-129,137.71-354.11,1.89-484.39-52.49-51.56-122.29-85.37-195.44-94.09-11.25-1.48-22.6-2.18-33.94-2.44-16.98-.73-33.81,1.35-50.31,5.41-142.81,37.05-294.51,217.68-379.33,334.23h0Z"/></g></svg>