<svg xmlns="http://www.w3.org/2000/svg" width="122.015" height="122.053" viewBox="0 0 122.015 122.053">
  <g id="グループ_166" data-name="グループ 166" transform="translate(-1233.01 -136.403)">
    <g id="グループ_165" data-name="グループ 165">
      <path id="パス_112" data-name="パス 112" d="M1294.158,146.9a5.375,5.375,0,0,1-2.658.882c-3.086.226-5.145-2.01-5.386-5.3s1.552-5.841,4.484-6.056a4.5,4.5,0,0,1,2.8.666l-.26.847a3.726,3.726,0,0,0-2.478-.675c-2.373.174-3.845,2.317-3.638,5.137.173,2.374,1.571,4.77,4.474,4.557a4.169,4.169,0,0,0,2.59-1.06Z"/>
      <path id="パス_113" data-name="パス 113" d="M1300.453,136.666c2.549.268,4.288,2.62,3.932,6.147-.369,3.51-2.561,5.463-5.124,5.193-2.494-.262-4.3-2.55-3.918-6.144S1297.974,136.406,1300.453,136.666Zm-1.106,10.518c2.312.244,3.851-1.933,4.118-4.468s-.787-4.971-3.1-5.214c-2.285-.24-3.846,1.892-4.116,4.455S1297.063,146.944,1299.347,147.184Z"/>
      <path id="パス_114" data-name="パス 114" d="M1309.072,138.377l2.509,11.121,2.857-9.51.858.258-3.15,10.488-1.275-.382-2.495-11.117-2.856,9.51-.859-.258L1307.812,138Z"/>
      <path id="パス_115" data-name="パス 115" d="M1316.507,152.839l-.817-.4,4.473-9.067-2.963-1.461.371-.754,6.744,3.327-.372.753-2.964-1.462Z"/>
      <path id="パス_116" data-name="パス 116" d="M1323.123,152.642l-2.9,2.152-.789-.559,9.3-6.839,1.006.713-3.376,11.036-.789-.559,1.072-3.448Zm5.625-4.2-4.941,3.676,3.108,2.2Z"/>
      <path id="パス_117" data-name="パス 117" d="M1332.36,164.478a5.369,5.369,0,0,1-2.408-1.43c-2.192-2.181-1.852-5.2.478-7.541s5.425-2.654,7.508-.581a4.5,4.5,0,0,1,1.333,2.55l-.811.358a3.729,3.729,0,0,0-1.113-2.313c-1.687-1.678-4.269-1.385-6.263.618-1.679,1.686-2.572,4.31-.51,6.364a4.17,4.17,0,0,0,2.5,1.261Z"/>
      <path id="パス_118" data-name="パス 118" d="M1334.713,168.455l-.535-.735,8.163-5.949L1340.4,159.1l.678-.495,4.425,6.072-.678.494-1.945-2.668Z"/>
      <path id="パス_119" data-name="パス 119" d="M1342.2,182a5.377,5.377,0,0,1-1.662-2.254c-1.17-2.863.317-5.512,3.375-6.762s6.031-.334,7.144,2.387a4.5,4.5,0,0,1,.234,2.867l-.886.015a3.721,3.721,0,0,0-.126-2.564c-.9-2.2-3.392-2.937-6.01-1.868-2.2.9-4.047,2.97-2.946,5.664a4.163,4.163,0,0,0,1.81,2.133Z"/>
      <path id="パス_120" data-name="パス 120" d="M1353.877,184.863c.528,2.507-1.176,4.884-4.639,5.627-3.453.727-5.984-.758-6.514-3.279-.517-2.453,1.107-4.87,4.642-5.614S1353.364,182.424,1353.877,184.863Zm-10.345,2.177c.479,2.275,3.022,3.07,5.516,2.546,2.479-.522,4.486-2.275,4.008-4.55-.474-2.247-2.981-3.079-5.5-2.548S1343.06,184.793,1343.532,187.04Z"/>
      <path id="パス_121" data-name="パス 121" d="M1354.884,193.549l-9.8,5.813,9.92-.216.019.9-10.941.239-.029-1.329,9.8-5.8-9.921.217-.02-.9,10.942-.238Z"/>
      <path id="パス_122" data-name="パス 122" d="M1343.442,205.1l.129-.9,10,1.432.469-3.269.831.118-1.065,7.441-.831-.119.467-3.27Z"/>
      <path id="パス_123" data-name="パス 123" d="M1345.679,211.337l-2.942-2.09.287-.922,9.374,6.719-.366,1.177-11.532.2.288-.922,3.608-.049Zm5.734,4.045-5.02-3.559-1.133,3.636Z"/>
      <path id="パス_124" data-name="パス 124" d="M1337.287,223.766a5.377,5.377,0,0,1,.617-2.731c1.4-2.759,4.376-3.367,7.323-1.873,2.932,1.488,4.2,4.343,2.869,6.965a4.51,4.51,0,0,1-2.015,2.054l-.591-.661a3.726,3.726,0,0,0,1.857-1.773c1.077-2.122,0-4.488-2.52-5.767-2.122-1.077-4.894-1.118-6.212,1.478a4.174,4.174,0,0,0-.429,2.764Z"/>
      <path id="パス_125" data-name="パス 125" d="M1334.211,227.246l.535-.736,8.175,5.949,1.944-2.672.68.494-4.425,6.08-.68-.494,1.946-2.672Z"/>
      <path id="パス_126" data-name="パス 126" d="M1323.634,238.553a5.367,5.367,0,0,1,1.629-2.279c2.36-2,5.341-1.4,7.476,1.115s2.186,5.634-.057,7.534a4.5,4.5,0,0,1-2.655,1.111l-.288-.838a3.723,3.723,0,0,0,2.4-.914c1.816-1.538,1.743-4.136-.085-6.294-1.538-1.816-4.078-2.93-6.3-1.048a4.167,4.167,0,0,0-1.468,2.382Z"/>
      <path id="パス_127" data-name="パス 127" d="M1324.553,250.527c-2.22,1.282-5.009.4-6.793-2.66-1.765-3.057-1.14-5.925,1.092-7.214,2.171-1.253,4.974-.462,6.781,2.668S1326.712,249.281,1324.553,250.527Zm-5.288-9.158c-2.014,1.162-1.979,3.827-.7,6.035s3.558,3.558,5.572,2.4c1.989-1.149,2-3.792.712-6.024S1321.255,240.22,1319.265,241.369Z"/>
      <path id="パス_128" data-name="パス 128" d="M1316.58,254.2l-8.564-7.519,3.278,9.368-.846.3-3.615-10.333,1.255-.439,8.551,7.524-3.279-9.369.846-.3,3.616,10.333Z"/>
      <path id="パス_129" data-name="パス 129" d="M1302.07,246.864l.9-.154,1.708,9.959,3.255-.558.142.828-7.407,1.27-.143-.828,3.256-.558Z"/>
      <path id="パス_130" data-name="パス 130" d="M1296.791,250.9l1.063-3.446.966-.016-3.445,11-1.231.02-3.8-10.882.966-.016,1.174,3.41Zm-2.045,6.71,1.807-5.88-3.806.062Z"/>
      <path id="パス_131" data-name="パス 131" d="M1282.376,246.773a5.364,5.364,0,0,1,2.79-.261c3.059.475,4.562,3.118,4.054,6.385-.506,3.252-2.829,5.343-5.736,4.891a4.507,4.507,0,0,1-2.579-1.28l.445-.767a3.731,3.731,0,0,0,2.263,1.217c2.353.365,4.27-1.392,4.7-4.187.367-2.353-.455-5-3.334-5.451a4.17,4.17,0,0,0-2.762.449Z"/>
      <path id="パス_132" data-name="パス 132" d="M1278.124,244.934l.865.281-3.117,9.617,3.144,1.019-.26.8-7.153-2.319.259-.8,3.144,1.019Z"/>
      <path id="パス_133" data-name="パス 133" d="M1264.134,238.359a5.367,5.367,0,0,1,2.668.85c2.627,1.632,2.975,4.65,1.233,7.455s-4.689,3.808-7.185,2.257a4.5,4.5,0,0,1-1.872-2.184l.709-.532a3.719,3.719,0,0,0,1.606,2c2.02,1.256,4.47.389,5.962-2.012,1.256-2.021,1.536-4.779-.937-6.315a4.167,4.167,0,0,0-2.716-.667Z"/>
      <path id="パス_134" data-name="パス 134" d="M1253.015,242.911c-1.9-1.717-1.921-4.64.442-7.279,2.365-2.618,5.285-2.906,7.2-1.179,1.861,1.68,1.969,4.589-.452,7.27S1254.864,244.582,1253.015,242.911Zm7.085-7.845c-1.725-1.558-4.249-.706-5.957,1.186s-2.289,4.478-.565,6.036c1.7,1.539,4.221.737,5.947-1.176S1261.805,236.6,1260.1,235.066Z"/>
      <path id="パス_135" data-name="パス 135" d="M1247.077,236.476l4.5-10.47-7.9,6.015-.543-.713,8.711-6.634.8,1.058-4.512,10.459,7.9-6.015.543.713-8.71,6.635Z"/>
      <path id="パス_136" data-name="パス 136" d="M1249.55,220.406l.425.8-8.935,4.715,1.541,2.921-.742.391-3.507-6.645.742-.392,1.541,2.921Z"/>
      <path id="パス_137" data-name="パス 137" d="M1244.068,216.646l3.607-.035.308.915-11.527.062-.393-1.167,9.211-6.93.309.915-2.892,2.156Zm-7.012.09,6.15-.065-1.216-3.607Z"/>
      <path id="パス_138" data-name="パス 138" d="M1243.574,201.675a5.375,5.375,0,0,1,1.1,2.574c.486,3.056-1.568,5.3-4.83,5.814s-5.951-1.053-6.411-3.956a4.507,4.507,0,0,1,.425-2.846l.867.189a3.717,3.717,0,0,0-.463,2.525c.373,2.35,2.632,3.635,5.425,3.192,2.35-.374,4.62-1.968,4.163-4.843a4.172,4.172,0,0,0-1.275-2.491Z"/>
      <path id="パス_139" data-name="パス 139" d="M1244.021,197.054l-.015.909-10.1-.165-.054,3.3-.84-.013.123-7.514.84.013-.054,3.3Z"/>
      <path id="パス_140" data-name="パス 140" d="M1245.917,181.7a5.37,5.37,0,0,1,.021,2.8c-.735,3-3.5,4.274-6.7,3.489s-5.078-3.274-4.38-6.129a4.514,4.514,0,0,1,1.5-2.459l.725.509a3.729,3.729,0,0,0-1.4,2.149c-.566,2.312,1.02,4.371,3.767,5.043,2.311.565,5.02-.025,5.712-2.853a4.162,4.162,0,0,0-.211-2.789Z"/>
      <path id="パス_141" data-name="パス 141" d="M1238.167,172.521c1.048-2.337,3.821-3.256,7.058-1.822,3.218,1.442,4.391,4.13,3.338,6.48-1.024,2.286-3.756,3.285-7.051,1.809S1237.148,174.795,1238.167,172.521Zm9.643,4.32c.95-2.12-.638-4.257-2.962-5.3s-4.964-.8-5.914,1.323c-.939,2.094.6,4.24,2.95,5.293S1246.871,178.936,1247.81,176.841Z"/>
      <path id="パス_142" data-name="パス 142" d="M1242.472,164.867l11.344,1.073-8.146-5.669.512-.735,8.985,6.253-.76,1.091L1243.07,165.8l8.147,5.669-.512.735-8.984-6.253Z"/>
      <path id="パス_143" data-name="パス 143" d="M1258.514,162.294l-.635.651-7.238-7.051-2.3,2.366-.6-.586,5.245-5.383.6.586-2.3,2.366Z"/>
      <path id="パス_144" data-name="パス 144" d="M1260.382,155.933l1.149,3.421-.774.577-3.63-10.948.988-.736,9.448,6.616-.776.577-2.946-2.082Zm-2.26-6.644,1.968,5.831,3.055-2.274Z"/>
      <path id="パス_145" data-name="パス 145" d="M1274.494,150.8a5.372,5.372,0,0,1-2.1,1.848c-2.755,1.41-5.523.152-7.028-2.79s-.844-5.986,1.774-7.325a4.506,4.506,0,0,1,2.839-.478l.089.883a3.729,3.729,0,0,0-2.546.342c-2.12,1.085-2.64,3.632-1.352,6.151,1.084,2.119,3.3,3.783,5.9,2.456a4.169,4.169,0,0,0,1.972-1.985Z"/>
      <path id="パス_146" data-name="パス 146" d="M1278.992,149.8l-.865.281-3.118-9.618-3.144,1.019-.259-.8,7.154-2.319.259.8-3.144,1.019Z"/>
    </g>
  </g>
</svg>
