<?xml version="1.0" encoding="UTF-8"?><svg id="_レイヤー_2" xmlns="http://www.w3.org/2000/svg" viewBox="0 0 200 60"><defs><style>.cls-1,.cls-2{stroke-width:0px;}.cls-2{fill:#fff;}</style></defs><g id="design"><rect class="cls-1" width="200" height="60" rx="10" ry="10"/><path class="cls-2" d="m166.34,39.89c-.23,0-.45-.09-.63-.26-.35-.35-.35-.91,0-1.25,6.26-6.26,6.26-10.49,0-16.75-.35-.35-.35-.91,0-1.25.35-.35.91-.35,1.25,0,6.93,6.93,6.93,12.33,0,19.25-.17.17-.4.26-.63.26Z"/><path class="cls-2" d="m167.14,30.89h-14.18c-.49,0-.89-.4-.89-.89s.4-.89.89-.89h14.18c.49,0,.89.4.89.89s-.4.89-.89.89Z"/><path class="cls-2" d="m67.84,34.57c.85,1.31,2.41,1.93,4.48,2.02,1.96.07,5.96.02,8.07-.12-.14.32-.38.95-.43,1.37-1.96.07-5.65.11-7.63.04-2.34-.09-3.94-.74-5.09-2.12-.87.76-1.77,1.53-2.72,2.3l-.72-1.35c.83-.54,1.84-1.29,2.74-2.05v-4.56h-2.5v-1.26h3.82v5.74Zm-.56-8.7c-.56-.86-1.89-2.05-3.06-2.85l.99-.81c1.15.76,2.52,1.91,3.13,2.77l-1.06.88Zm8.18,4.21c.76,2.25,2.29,3.78,4.7,4.46-.31.27-.67.78-.85,1.12-2.34-.81-3.85-2.34-4.73-4.63-.56,1.62-1.84,3.28-4.7,4.55-.18-.27-.6-.74-.88-.99,3.12-1.26,4.16-2.97,4.48-4.52h-4.63v-1.21h4.77c.02-.18.02-.34.02-.51v-2h-4.21v-1.19h2.25c-.22-.81-.88-2.02-1.55-2.9l1.13-.45c.7.87,1.38,2.05,1.64,2.86l-1.08.49h7.76v1.19h-4.61v2.02c0,.16,0,.32-.02.49h5.17v1.21h-4.66Zm3.15-7.87c-.63,1.03-1.35,2.21-1.95,2.97l-1.1-.4c.58-.83,1.31-2.12,1.67-3.03l1.37.45Z"/><path class="cls-2" d="m89.16,22.2c-.5,1.26-1.13,2.54-1.84,3.71v12.24h-1.26v-10.32c-.65.9-1.31,1.69-2,2.38-.13-.29-.52-.99-.76-1.3,1.82-1.71,3.56-4.38,4.61-7.09l1.24.38Zm10.98,2.9v1.12h-11.63v-1.12h11.63Zm-10.35,7.44h9.15v5.62h-1.33v-.79h-6.52v.85h-1.29v-5.67Zm8.98-3.85h-8.79v-1.1h8.79v1.1Zm-8.79,1.39h8.75v1.08h-8.75v-1.08Zm8.46-6.34h-8.25v-1.1h8.25v1.1Zm-7.37,9.88v2.65h6.52v-2.65h-6.52Z"/><path class="cls-2" d="m112.92,23.71c0,.27-.02.68-.02,1.17h.27c2.2,0,4.41.02,5.28.02l-.02,1.33c-1.01-.05-2.65-.09-5.28-.09h-.25c0,1.03.02,2.14.04,2.97.38.61.58,1.4.58,2.3,0,2.43-1.19,5.13-5.38,6.39l-1.21-1.19c2.39-.54,4.05-1.55,4.77-3.19-.43.32-.96.49-1.57.49-1.51,0-2.95-1.04-2.95-3.01,0-1.78,1.46-3.13,3.17-3.13.45,0,.85.07,1.21.2,0-.54,0-1.19-.02-1.82-2.74.02-5.8.14-8.05.3l-.04-1.39c2-.04,5.38-.14,8.07-.18,0-.5-.02-.94-.04-1.19-.02-.47-.09-.99-.11-1.13h1.64c-.04.2-.07.9-.09,1.13Zm-2.56,8.97c1.06,0,1.75-.85,1.58-2.56-.29-.79-.9-1.13-1.6-1.13-.94,0-1.82.74-1.82,1.91s.83,1.78,1.84,1.78Z"/><path class="cls-2" d="m125.5,23.64c.94,0,5.22-.14,6.18-.23.54-.04.79-.09.97-.14l.83,1.04c-.32.23-.68.47-1.01.74-.9.68-3.35,2.77-4.75,3.94.83-.29,1.69-.38,2.5-.38,2.99,0,5.13,1.8,5.13,4.23,0,2.9-2.38,4.77-6.19,4.77-2.45,0-3.94-1.06-3.94-2.56,0-1.24,1.1-2.34,2.77-2.34,2.25,0,3.46,1.48,3.67,3.19,1.44-.56,2.25-1.6,2.25-3.08,0-1.76-1.69-3.1-4.03-3.1-3.01,0-4.61,1.28-6.89,3.6l-1.03-1.06c1.49-1.22,3.8-3.15,4.84-4.03,1.01-.83,3.26-2.72,4.18-3.53-.96.04-4.56.2-5.51.25-.4.02-.81.05-1.19.11l-.05-1.49c.41.05.92.07,1.28.07Zm3.42,12.71c.52,0,1.01-.04,1.46-.11-.14-1.42-1.04-2.45-2.41-2.45-.81,0-1.44.52-1.44,1.15,0,.87.99,1.4,2.39,1.4Z"/></g></svg>