<?xml version="1.0" encoding="UTF-8"?><svg id="_レイヤー_2" xmlns="http://www.w3.org/2000/svg" viewBox="0 0 80 80"><defs><style>.cls-1,.cls-2{stroke-width:0px;}.cls-2{fill:#fff;}</style></defs><g id="design"><circle class="cls-1" cx="40" cy="40" r="40"/><path class="cls-2" d="m24.91,34.4c-.38,0-.76-.15-1.05-.44-.58-.58-.58-1.52,0-2.1,5.95-5.95,11.08-8.72,16.15-8.72s10.2,2.77,16.14,8.72c.58.58.58,1.52,0,2.1-.58.58-1.52.58-2.1,0-5.35-5.35-9.82-7.85-14.04-7.85s-8.69,2.49-14.04,7.85c-.29.29-.67.44-1.05.44Z"/><path class="cls-2" d="m40,56.85c-.82,0-1.49-.67-1.49-1.49v-23.79c0-.82.67-1.49,1.49-1.49s1.49.67,1.49,1.49v23.79c0,.82-.67,1.49-1.49,1.49Z"/></g></svg>