<svg xmlns="http://www.w3.org/2000/svg" width="435.472" height="70.99" viewBox="0 0 435.472 70.99">
  <g id="グループ_154" data-name="グループ 154" transform="translate(-240.062 -161.891)">
    <path id="パス_97" data-name="パス 97" d="M240.062,222.573c5.5-5.037,12.012-13.252,16.12-27.279H240.915v-3.953H256.8V177.624H243.317v-4.03H256.8V161.969h3.565v11.625h13.407v4.03H260.367v13.717h15.887v3.953H260.832c3.952,11.547,9.842,21.157,16.2,27.2l-2.092,3.952c-6.665-7.052-11.238-15.654-14.57-24.722v30.922H256.8V202.191c-1.55,4.418-6.045,16.12-14.492,24.257Z"/>
    <path id="パス_98" data-name="パス 98" d="M317.02,229.006c-9.145-9.377-13.253-19.995-14.88-24.18V232.8h-3.411V204.749a79.105,79.105,0,0,1-14.647,24.179l-2.17-3.8a69.8,69.8,0,0,0,15.81-25.11H282.687v-3.952h16.042V174.524H284.314v-4.03h14.415v-8.6h3.411v8.6h14.724v4.03H302.14v21.545H318.1v3.952H303.069c2.17,6.123,6.9,16.74,16.12,24.8Zm-26.583-35.417a136.471,136.471,0,0,0-3.022-14.725l3.254-1.628a118.7,118.7,0,0,1,2.945,14.648Zm16.74-1.55a88.538,88.538,0,0,0,3.022-14.57l3.333,1.24a86.887,86.887,0,0,1-3.41,14.957Z"/>
    <path id="パス_99" data-name="パス 99" d="M326.862,229.859c-.7-9.068-.93-19.3-.93-28.443.078-13.64.93-29.527,1.395-36.812l4.185.542c-1.7,15.113-1.783,36.658-1.783,37.045,0,4.107.233,18.678,1.085,26.815Zm21-65.023h4.031l.077,14.26h7.44v4.418h-7.44l.077,23.87a33.765,33.765,0,0,1,8.06,11.624l-2.712,4.341a38.656,38.656,0,0,0-5.425-10.23c0,5.734-.077,16.894-8.448,16.894-5.192,0-8.912-5.192-8.912-13.33,0-10.539,6.045-13.174,9.377-13.174a8.854,8.854,0,0,1,4.185,1.085l-.154-21.08H335.93V179.1h12.09Zm.388,44.252a6,6,0,0,0-4.107-1.782c-2.868,0-5.813,2.635-5.813,9.688,0,6.974,2.868,9.222,5.192,9.222,4.883,0,4.806-7.672,4.806-10.075Z"/>
    <path id="パス_100" data-name="パス 100" d="M379.174,222.961a57.5,57.5,0,0,0-3.8-7.052,58.525,58.525,0,0,1-7.749,16.429l-2.015-3.72c2.015-2.867,4.96-7.362,7.362-16.2a56.556,56.556,0,0,0-6.975-7.75c1.783-11.237,2.48-18.987,2.945-24.412h-2.557v-4.03h2.79c.387-5.425.465-7.6.62-14.183l3.41.31c-.233,6.045-.311,7.44-.775,13.873H380.1c-.155,10.23-.775,22.707-3.41,34.8a59.429,59.429,0,0,1,4.96,8.448Zm-7.052-42.7c-.775,10.307-1.783,16.817-2.635,22.32,2.17,2.247,3.177,3.332,4.65,5.114,1.937-9.3,2.4-19.839,2.712-27.434Zm29.062-11.315a62.25,62.25,0,0,1-8.215,16.12v8.525h8.99v3.952h-8.99V225.6c0,4.417,0,7.285-3.875,7.285h-5.5l-.776-4.573,5.658.155c1.163,0,1.163-.31,1.163-3.255V197.541h-9.3v-3.952h9.3V182.041h1.705a48.469,48.469,0,0,0,6.2-12.942H381.577v-4.108h19.607Z"/>
    <path id="パス_101" data-name="パス 101" d="M427.069,164.371c.155,3.8.31,5.968.853,10.385a46,46,0,0,0,12.012-2.092l.465,4.262c-1.628.465-4.34,1.318-12.012,1.938.775,5.347.852,5.89,1.782,11.082a85.144,85.144,0,0,0,12.323-2.092l.31,4.185a65.234,65.234,0,0,1-11.858,1.782c2.17,9.378,4.108,13.563,5.115,15.655l-3.642,2.945a109.033,109.033,0,0,1-5.5-18.212c-2.17.155-7.285.465-10.385.465h-8.292v-4.03H417.3c2.79,0,5.968-.155,8.758-.31-1.163-5.813-1.55-9.455-1.783-11.238-2.247.078-4.8.155-7.052.155h-6.743v-4.107h6.433c3.565,0,4.8,0,6.82-.155-.233-2.248-.853-8.758-.93-10.54Zm11.78,64.945a49.361,49.361,0,0,1-9.067.775c-6.278,0-9.455-.93-11.858-2.4-4.185-2.557-5.89-7.6-5.89-11.547a25.983,25.983,0,0,1,3.1-11.857l3.1,2.247a18.113,18.113,0,0,0-2.17,8.757c0,8.525,5.425,10.463,13.562,10.463a46.884,46.884,0,0,0,9.843-1.007Z"/>
    <path id="パス_102" data-name="パス 102" d="M479.537,229.471c-13.795-.853-20.693-7.983-20.693-23.637a49.273,49.273,0,0,1,13.485-34.023c-4.572.31-17.437,1.783-21.39,2.48l-.387-4.882q5.7-.35,11.392-.93c5.038-.465,11.548-.7,21.855-1.163V172.2a10.869,10.869,0,0,0-2.635-.233,23.6,23.6,0,0,0-4.03.388c-6.509,4.572-14.105,16.817-14.105,32.859,0,10.463,2.713,19.065,17.05,19.453Zm-2.17-32.7a70.549,70.549,0,0,0-3.41-11.005l2.79-1.705a78.389,78.389,0,0,1,3.487,10.928Zm5.425-3.72a73.018,73.018,0,0,0-3.333-10.772l2.713-1.783a59.122,59.122,0,0,1,3.487,10.85Z"/>
    <path id="パス_103" data-name="パス 103" d="M491.162,229.006c3.177-8.525,5.038-18.6,6.045-23.947l2.712,2.247a166.241,166.241,0,0,1-6.432,25.42Zm5.967-34.022a51.441,51.441,0,0,0-5.812-7.828l1.473-3.565a35.838,35.838,0,0,1,6.2,7.75Zm2.016-21.313a35.618,35.618,0,0,0-6.123-7.75l1.55-3.642a36.389,36.389,0,0,1,6.588,7.44Zm.232,8.525c4.107-5.735,6.433-13.175,7.9-20.227l2.945,1.4c-1.473,7.052-4.34,16.275-8.448,21.932Zm3.487,24.335a16.377,16.377,0,0,1-1.394,1.7l-1.938-3.41c3.72-3.952,7.207-10.617,9.3-20.305L511.7,186.3a79.3,79.3,0,0,1-5.812,15.422h16.662a87.342,87.342,0,0,1-5.27-16.12l2.713-1.86c1.472,6.433,4.34,15.81,8.215,21.313l-2.015,3.565a12.844,12.844,0,0,1-.93-1.55v19.994h2.17v3.8H500.54v-3.8h2.324Zm6.511-1.162h-3.721v21.7h3.721Zm12.4-27.823v3.875H506.43v-3.875Zm-5.89,27.823h-3.8v21.7h3.8ZM526.27,185.3c-1.861-3.022-5.193-9.377-7.828-21.932l3.022-1.318c1.473,7.363,3.643,14.26,7.13,19.995Zm-3.8,41.772v-21.7H518.52v21.7Z"/>
    <path id="パス_104" data-name="パス 104" d="M564.477,209.864c-.078,4.417-.078,5.424-.078,6.432,0,4.495,1.008,6.82,5.038,6.82l-1.163,4.263c-8.214.077-8.06-8.216-7.827-17.051l.7-23.714c.077-1.473.077-4.573.077-5.968,0-5.347-.542-7.672-3.1-7.672-3.875,0-9.687,11.082-12.4,16.9-.155,6.432-.31,35.03-.388,40.919H541.3c0-4.495.232-24.179.31-28.209a110.072,110.072,0,0,1-5.968,13.949l-2.4-4.649a99.525,99.525,0,0,0,8.525-19.763l.155-10.927-7.131.465v-4.418h7.131c.077-2.092.155-11.547.232-13.485h4.108c-.078,2.945-.31,15.81-.388,18.445,1.937-3.8,7.207-13.407,12.942-13.407,6.433,0,6.511,6.975,6.2,19.607Z"/>
    <path id="パス_105" data-name="パス 105" d="M605.086,229.471c-13.794-.853-20.692-7.983-20.692-23.637a49.272,49.272,0,0,1,13.485-34.023c-4.572.31-17.437,1.783-21.39,2.48l-.387-4.882q5.7-.35,11.392-.93c5.038-.465,11.548-.7,21.855-1.163V172.2a10.874,10.874,0,0,0-2.635-.233,23.6,23.6,0,0,0-4.03.388c-6.51,4.572-14.105,16.817-14.105,32.859,0,10.463,2.713,19.065,17.05,19.453Z"/>
    <path id="パス_106" data-name="パス 106" d="M617.1,209.786c1.317-2.17,6.587-11.935,7.749-13.95,5.038-8.912,10.23-17.747,15.5-26.505-.155,0-15.965.155-19.53.233v-4.495h24.1v4.34c-3.255,5.425-8.526,14.105-11.7,19.607a12.173,12.173,0,0,1,6.82-2.325c11.16,0,11.315,15.81,11.315,20,0,5.115-.465,24.257-15.577,24.257-7.673,0-11.16-6.355-11.16-13.02,0-6.277,2.79-11.547,7.672-11.547,5.58,0,8.68,6.51,9.688,18.6,4.96-4.107,5.27-14.492,5.27-18.057,0-6.278-.7-16.353-7.983-16.353-5.657,0-9.3,5.115-11.392,8.06-3.565,6.433-6.51,12.323-7.905,15.267Zm14.957.62c-2.945,0-3.8,4.185-3.8,7.053,0,1.937,0,9.532,7.673,9.532a12.814,12.814,0,0,0,2.4-.233C638.024,221.488,636.474,210.406,632.057,210.406Z"/>
    <path id="パス_107" data-name="パス 107" d="M675.534,220.636a9.842,9.842,0,1,1-9.842-9.842A9.806,9.806,0,0,1,675.534,220.636Zm-16.584,0a6.7,6.7,0,0,0,6.742,6.743,6.782,6.782,0,1,0-6.742-6.743Z"/>
  </g>
</svg>
